@startuml

Product <|.. ConcreteProductA
Product <|.. ConcreteProductB
Creator <|.. ConcreteCreatorA
Creator <|.. ConcreteCreatorB
Product <-- Creator

interface Product << (P, #FF0000) protocol >> {
  +doStuff()
}
interface Creator << (P, #FF0000) protocol >> {
  +someOperation()
  +createProduct() -> Product
}
class ConcreteProductA {
  +doStuff()
}
class ConcreteProductB {
  +doStuff()
}
class ConcreteCreatorA {
  +createProduct() -> Product
}
class ConcreteCreatorB {
  +createProduct() -> Product
}

@enduml
